<svg xmlns="http://www.w3.org/2000/svg" xmlns:svg="http://www.w3.org/2000/svg" id="svg8" width="192" height="192" version="1.1" viewBox="0 0 50.8 50.8"><defs id="defs2"><marker id="Arrow1Lend" orient="auto" refX="0" refY="0" style="overflow:visible"><path id="path844" d="M 0,0 5,-5 -12.5,0 5,5 Z" transform="matrix(-0.8,0,0,-0.8,-10,0)" style="fill-rule:evenodd;stroke:#000;stroke-width:1pt"/></marker><marker id="Arrow1Lstart" orient="auto" refX="0" refY="0" style="overflow:visible"><path id="path841" d="M 0,0 5,-5 -12.5,0 5,5 Z" transform="matrix(0.8,0,0,0.8,10,0)" style="fill-rule:evenodd;stroke:#000;stroke-width:1pt"/></marker></defs><metadata id="metadata5"/><g id="layer2"><path style="fill:none;stroke:#000;stroke-width:3.175;stroke-linecap:round;stroke-linejoin:miter;stroke-miterlimit:4;stroke-dasharray:none;stroke-opacity:1" id="path36965" d="m 5.8208336,6.9477305 c 1.6431027,0.00755 3.2142715,0.6639218 4.3689864,1.8257831 1.1585,1.1580895 1.805896,2.7273574 1.805896,4.3607544 v 30.755391"/><path style="fill:none;stroke:#000;stroke-width:3.175;stroke-linecap:round;stroke-linejoin:round;stroke-miterlimit:4;stroke-dasharray:none;stroke-opacity:1" id="path36967" d="m 44.948618,43.889659 h -24.71089 v -6.15636 c 0,-3.266792 1.302368,-6.397785 3.619369,-8.710191 2.317001,-2.308636 5.459339,-3.6063 8.737972,-3.6063 h 6.212744 c 0.813976,0 1.620382,-0.158435 2.370003,-0.471535 0.749616,-0.309326 1.434874,-0.765771 2.006553,-1.342931 0.575465,-0.573385 1.029776,-1.256169 1.33644,-2.006852 0.30666,-0.750684 0.465672,-1.55418 0.458099,-2.365218 0,-2.908428 -1.029779,-5.726321 -2.915183,-7.948192 -1.885399,-2.2256458 -4.497706,-3.7119226 -7.375027,-4.1985468 -2.881109,-0.4866242 -5.84172,0.060354 -8.35559,1.5390897 -2.513871,1.4825051 -4.418204,3.7986851 -5.38362,6.5486761 -0.230944,0.663921 -0.408883,1.342932 -0.53382,2.033259"/></g></svg>