<svg xmlns="http://www.w3.org/2000/svg" xmlns:svg="http://www.w3.org/2000/svg" id="svg8" width="192" height="192" version="1.1" viewBox="0 0 50.8 50.8"><defs id="defs2"><marker id="Arrow1Lend" orient="auto" refX="0" refY="0" style="overflow:visible"><path id="path844" d="M 0,0 5,-5 -12.5,0 5,5 Z" transform="matrix(-0.8,0,0,-0.8,-10,0)" style="fill-rule:evenodd;stroke:#000;stroke-width:1pt"/></marker><marker id="Arrow1Lstart" orient="auto" refX="0" refY="0" style="overflow:visible"><path id="path841" d="M 0,0 5,-5 -12.5,0 5,5 Z" transform="matrix(0.8,0,0,0.8,10,0)" style="fill-rule:evenodd;stroke:#000;stroke-width:1pt"/></marker></defs><metadata id="metadata5"/><g id="layer2"><path id="path930" d="m 148.04688,40.736328 a 6.0005809,6.0005809 0 0 0 -4.24805,1.953125 l -42.35352,46.429688 c 2.32732,3.695816 4.11854,7.735952 5.25586,12.048829 L 142.23438,62.207031 V 111.5625 h -34.1211 c 0.003,0.21896 0.01,0.43636 0.01,0.65625 0,3.92911 -0.51561,7.72679 -1.47266,11.34766 h 35.58399 v 21.35547 a 5.999981,5.999981 0 0 0 6.00195,5.99414 5.999981,5.999981 0 0 0 5.99414,-5.99414 v -21.35547 h 15.76758 a 5.999981,5.999981 0 0 0 6,-6.00196 5.999981,5.999981 0 0 0 -6,-6.00195 H 154.23047 V 46.726562 a 6.0005809,6.0005809 0 0 0 -3.83203,-5.58789 6.0005809,6.0005809 0 0 0 -2.35156,-0.402344 z" transform="scale(0.26458334)" style="color:#000;fill:#000;stroke-width:3.77953;stroke-linecap:round;stroke-linejoin:round;-inkscape-stroke:none"/><path id="path24048" d="m 16.248047,11.265625 c -2.560704,1.471102 -5.462781,4.056433 -7.8242189,7.275391 -2.3614377,3.218957 -4.1914062,7.088349 -4.1914062,11.15039 0,5.763244 5.0766274,10.332031 11.1171871,10.332031 6.060224,0 11.140625,-4.568787 11.140625,-10.332031 0,-5.744583 -5.080401,-10.308594 -11.140625,-10.308594 -1.455739,0 -2.844679,0.290629 -4.130859,0.773438 2.064041,-2.727654 4.638883,-5.003566 6.611328,-6.136719 a 1.587495,1.587495 0 0 0 0.585938,-2.167968 1.587495,1.587495 0 0 0 -2.167969,-0.585938 z m -0.898438,11.291016 c 4.48684,0 7.964844,3.276524 7.964844,7.134765 0,3.885971 -3.478004,7.15625 -7.964844,7.15625 -4.460245,0 -7.9414059,-3.270279 -7.9414059,-7.15625 0,-3.858241 3.4811609,-7.134765 7.9414059,-7.134765 z" style="color:#000;fill:#000;stroke:none;stroke-width:3.175;stroke-linecap:round;stroke-linejoin:round;stroke-miterlimit:4;stroke-dasharray:none;paint-order:markers fill stroke"/></g></svg>