<svg xmlns="http://www.w3.org/2000/svg" xmlns:svg="http://www.w3.org/2000/svg" id="svg8" width="192" height="192" version="1.1" viewBox="0 0 50.8 50.8"><defs id="defs2"><marker id="Arrow1Lend" orient="auto" refX="0" refY="0" style="overflow:visible"><path id="path844" d="M 0,0 5,-5 -12.5,0 5,5 Z" transform="matrix(-0.8,0,0,-0.8,-10,0)" style="fill-rule:evenodd;stroke:#000;stroke-width:1pt"/></marker><marker id="Arrow1Lstart" orient="auto" refX="0" refY="0" style="overflow:visible"><path id="path841" d="M 0,0 5,-5 -12.5,0 5,5 Z" transform="matrix(0.8,0,0,0.8,10,0)" style="fill-rule:evenodd;stroke:#000;stroke-width:1pt"/></marker></defs><metadata id="metadata5"/><g id="layer2"><path style="color:#000;fill:#000;stroke-width:.999996;stroke-linecap:round;stroke-linejoin:round;-inkscape-stroke:none" id="path38056" d="m 31.35297,38.225148 -3.933397,1.131417 a 1.0794718,1.0794718 0 0 0 -0.730376,1.366463 c 0.234313,0.731877 0.691054,1.358096 1.339905,1.662598 0.648851,0.304501 1.359969,0.23882 1.940141,0.01594 1.160342,-0.445768 2.071992,-1.442923 2.657234,-2.675825 A 1.0794718,1.0794718 0 0 0 31.35297,38.22515 Z"/><path style="color:#000;fill:#000;stroke-width:.999996;stroke-linecap:round;stroke-linejoin:round;-inkscape-stroke:none" id="path38008" d="m 19.210254,38.225148 a 1.0794718,1.0794718 0 0 0 -1.272179,1.500587 c 0.58637,1.235278 1.504298,2.232741 2.667858,2.677154 0.58178,0.222207 1.292801,0.287521 1.942795,-0.01594 0.649996,-0.303456 1.109159,-0.930739 1.34389,-1.663926 a 1.0794718,1.0794718 0 0 0 -0.731703,-1.36779 z"/><path id="path38054" d="M 15.711832,27.337755 C 15.44526,26.72103 15.258659,26.023867 15.285316,25.38033 c 0.106623,-2.332821 4.478431,-2.413262 5.358123,-0.05363 0.826378,2.171937 0.374987,6.064791 -1.211127,8.866858 -1.2129,-3.123835 -2.867445,-4.76431 -3.72048,-6.855803 z m 11.969139,-0.187713 c -0.293232,-0.643537 -0.506492,-1.474773 -0.23992,-2.252379 0.479832,-1.5284 4.3718,-1.876983 5.224835,0.482653 0.986322,2.708217 0.398969,6.387764 -1.213794,8.532887 -1.212917,-2.413264 -3.024716,-5.047062 -3.771121,-6.763161 z m 12.28903,16.061621 c 8.103829,-9.3581 5.917926,-23.167327 -3.145566,-30.836141 -0.906349,2.145124 -1.546124,2.869103 -3.705366,3.566267 1.546122,-4.477942 -2.932309,-8.0442079 -6.850936,-10.0820759 0.106623,3.351755 -1.09295,6.7571359 -4.131885,8.4196059 -1.759384,-0.80442 -2.69239,-3.137241 -2.505788,-4.9874089 -3.358824,2.7886589 -4.638376,5.6309469 -4.931605,9.9211929 -1.759383,0.348581 -3.438797,-0.02683 -3.918627,-1.850169 -6.9042488,8.178278 -6.6643338,18.662567 0.613118,26.519079 2.21534,-6.734231 7.517775,-10.59084 13.923008,-10.846241 6.405233,-0.255401 12.917396,4.232958 14.653647,10.175877 z" style="fill:none;stroke:#000;stroke-width:3.17501;stroke-linecap:round;stroke-linejoin:round;stroke-miterlimit:4;stroke-dasharray:none;stroke-opacity:1"/></g></svg>