<svg xmlns="http://www.w3.org/2000/svg" xmlns:svg="http://www.w3.org/2000/svg" id="svg8" width="192" height="192" version="1.1" viewBox="0 0 50.8 50.8"><defs id="defs2"><marker id="Arrow1Lend" orient="auto" refX="0" refY="0" style="overflow:visible"><path id="path844" d="M 0,0 5,-5 -12.5,0 5,5 Z" transform="matrix(-0.8,0,0,-0.8,-10,0)" style="fill-rule:evenodd;stroke:#000;stroke-width:1pt"/></marker><marker id="Arrow1Lstart" orient="auto" refX="0" refY="0" style="overflow:visible"><path id="path841" d="M 0,0 5,-5 -12.5,0 5,5 Z" transform="matrix(0.8,0,0,0.8,10,0)" style="fill-rule:evenodd;stroke:#000;stroke-width:1pt"/></marker></defs><metadata id="metadata5"/><g id="layer2"><path style="fill:none;stroke:#000;stroke-width:3.175;stroke-linecap:round;stroke-linejoin:round;stroke-miterlimit:4;stroke-dasharray:none;stroke-opacity:1" id="path15953" d="m 18.119919,30.023759 7.256209,-12.501391 7.30395,12.501391 m -11.600389,-5.1164 h 8.545146"/><path style="fill:none;fill-opacity:1;fill-rule:evenodd;stroke:#000;stroke-width:3.175;stroke-miterlimit:4;stroke-dasharray:none" id="path997" d="m 17.613362,36.978704 c 6.103357,0.722808 12.368544,-1.036026 15.651409,-1.421522 0.94787,-0.09638 1.641432,-0.02411 2.034452,0.289123 0.601088,0.481872 0.57797,1.084211 0.09247,2.14433 -0.508615,1.108306 0.161826,1.590178 1.317768,1.180587 3.005445,-1.060119 9.062565,-6.698021 8.184051,-14.817562 C 43.99188,16.113649 36.593873,10.740776 25.427508,11.535866 14.053072,12.355049 6.6781859,18.426635 5.8690269,25.341496 5.3835329,29.654251 8.3427349,35.894493 17.613362,36.978704 Z"/></g></svg>