<svg xmlns="http://www.w3.org/2000/svg" xmlns:svg="http://www.w3.org/2000/svg" id="svg8" width="192" height="192" version="1.1" viewBox="0 0 50.8 50.8"><defs id="defs2"><marker id="Arrow1Lend" orient="auto" refX="0" refY="0" style="overflow:visible"><path id="path844" d="M 0,0 5,-5 -12.5,0 5,5 Z" transform="matrix(-0.8,0,0,-0.8,-10,0)" style="fill-rule:evenodd;stroke:#000;stroke-width:1pt"/></marker><marker id="Arrow1Lstart" orient="auto" refX="0" refY="0" style="overflow:visible"><path id="path841" d="M 0,0 5,-5 -12.5,0 5,5 Z" transform="matrix(0.8,0,0,0.8,10,0)" style="fill-rule:evenodd;stroke:#000;stroke-width:1pt"/></marker></defs><metadata id="metadata5"/><g id="layer2"><path id="path7808-5" d="m 31.881827,42.644999 c 3.388813,-4.127314 9.464363,-3.842138 12.963654,-5.836033 0.664768,2.9199 -1.455767,5.901149 -3.903995,6.014686 -3.140247,0.02912 -6.270344,-1.30292 -9.059659,-0.178653 z m -2.526122,-5.070627 c 0.173756,-6.287425 2.577408,-14.966899 9.969679,-14.980206 6.391709,-0.01151 6.793178,8.46313 1.718053,9.799893 -3.910685,1.030056 -7.579208,1.77184 -11.687732,5.180313 z M 18.918172,42.644999 C 15.52936,38.517685 9.4538105,38.802861 5.9545195,36.808966 c -0.6647683,2.9199 1.4557675,5.901149 3.9039956,6.014686 3.1402459,0.02912 6.2703429,-1.30292 9.0596569,-0.178653 z M 25.4,28.375149 C 24.818473,26.37639 23.946487,24.656297 22.789738,23.109312 21.250319,21.050561 18.087775,19.078594 18.084663,15.134193 18.081163,10.705046 21.289323,7.9758419 25.4,7.9758421 c 4.110674,2e-7 7.322326,2.7292089 7.315338,7.1583509 -0.0062,3.944414 -3.163244,5.918178 -4.70508,7.975119 C 26.849315,24.658109 25.981526,26.37639 25.4,28.375149 Z m -3.955705,9.199223 c -0.173756,-6.287425 -2.577408,-14.966899 -9.96968,-14.980206 -6.3917079,-0.01151 -6.7931766,8.46313 -1.7180516,9.799893 3.9106836,1.030056 7.5792066,1.77184 11.6877316,5.180313 z" style="fill:none;stroke:#000;stroke-width:3.175;stroke-linecap:round;stroke-linejoin:round;stroke-miterlimit:4;stroke-dasharray:none;stroke-opacity:1"/></g></svg>