<svg xmlns="http://www.w3.org/2000/svg" xmlns:svg="http://www.w3.org/2000/svg" id="svg8" width="192" height="192" version="1.1" viewBox="0 0 50.8 50.8"><defs id="defs2"><marker id="Arrow1Lend" orient="auto" refX="0" refY="0" style="overflow:visible"><path id="path844" d="M 0,0 5,-5 -12.5,0 5,5 Z" transform="matrix(-0.8,0,0,-0.8,-10,0)" style="fill-rule:evenodd;stroke:#000;stroke-width:1pt"/></marker><marker id="Arrow1Lstart" orient="auto" refX="0" refY="0" style="overflow:visible"><path id="path841" d="M 0,0 5,-5 -12.5,0 5,5 Z" transform="matrix(0.8,0,0,0.8,10,0)" style="fill-rule:evenodd;stroke:#000;stroke-width:1pt"/></marker></defs><metadata id="metadata5"/><g id="layer2"><path style="fill:none;fill-opacity:1;fill-rule:evenodd;stroke:#000;stroke-width:3.17501;stroke-miterlimit:4;stroke-dasharray:none" id="path1034" d="m 14.651384,5.9604667 -6.4390275,2.119533 c -0.338895,0.09635 -0.629376,0.264943 -0.871446,0.481712 -0.217866,0.192696 -0.411515,0.481712 -0.556757,0.794827 -0.145243,0.313112 -0.217865,0.626224 -0.217865,0.9393393 0,0.313113 0.07262,0.626225 0.217865,0.963424 l 8.3271615,18.907209 c 0.24207,0.553969 0.677792,0.987509 1.210344,1.204281 0.532551,0.240846 1.137723,0.264943 1.718686,0.07225 l 2.63855,-0.915245 c 0.580963,-0.192697 1.016688,-0.578056 1.307171,-1.059768 0.266274,-0.505797 0.363102,-1.083852 0.242067,-1.661908 L 17.701449,7.6705437 c -0.07262,-0.337197 -0.193642,-0.650312 -0.387309,-0.891168 -0.193666,-0.264941 -0.435724,-0.481712 -0.750413,-0.650312 -0.290483,-0.168597 -0.605173,-0.26494 -0.919862,-0.289028 -0.314689,-0.04817 -0.653585,0 -0.992481,0.120424 z M 25.496059,37.223598 c -0.847239,-0.794827 -1.984962,-1.300624 -3.243719,-1.300624 -1.234549,0.0241 -2.372272,0.529884 -3.195305,1.348796 -0.823035,0.842996 -1.307173,1.97502 -1.307173,3.227472 0,1.228367 0.532553,2.360391 1.355586,3.179302 0.823033,0.818909 1.960756,1.300621 3.219513,1.300621 1.258756,0 2.396481,-0.529881 3.219514,-1.348792 0.798826,-0.818912 1.30717,-1.950936 1.30717,-3.203388 -0.0242,-1.252452 -0.532552,-2.384476 -1.355586,-3.203387 z m 8.302954,-4.84121 c -0.07262,0.0241 -0.363102,0.168597 -0.750411,0.313114 -0.314689,0.144523 -0.702001,0.289026 -1.040897,0.433541 -0.508343,0.192696 -0.871446,0.578053 -1.0651,1.03568 -0.193667,0.481712 -0.217866,1.059768 0,1.589652 l 1.137722,2.914359 c 0.121045,0.264943 0.266274,0.505799 0.459931,0.698484 0.193642,0.192696 0.411516,0.337199 0.677792,0.457627 0.266276,0.120423 0.508344,0.144522 0.750411,0.120423 0.266277,0 0.556759,-0.07225 0.871449,-0.192696 3.074272,-1.132024 5.591784,-3.058872 7.237853,-5.515607 1.573444,-2.360389 2.372271,-5.250664 2.105997,-8.429964 -0.290483,-3.275629 -1.62186,-6.141819 -3.631031,-8.309524 -2.081791,-2.264048 -4.889786,-3.781443 -7.988264,-4.287239 -1.08931,-0.168598 -2.081791,-0.216772 -3.074272,-0.192697 -0.968275,0.04817 -1.960756,0.168598 -3.00165,0.361284 -0.217866,0.04817 -0.508346,0.120424 -0.77462,0.240847 -0.09682,0.04817 -0.169443,0.09635 -0.193643,0.120423 -0.07262,0.120423 -0.121044,0.216771 -0.145243,0.337199 0,0.09635 0,0.216772 0.0242,0.3372 l 1.525031,5.636035 c 0.04842,0.168597 0.169443,0.337199 0.31469,0.43354 v 0 c 0.145243,0.07225 0.314689,0.120423 0.484137,0.07225 0.653585,-0.168597 1.282964,-0.240846 1.86393,-0.289028 0.556756,-0.0241 1.0651,-0.0241 1.476618,0.0241 1.646066,0.120423 3.00165,0.818911 3.994131,1.830507 1.08931,1.107939 1.767101,2.577163 1.888136,4.07047 0.145244,1.421052 -0.04842,2.577161 -0.580965,3.588754 -0.532551,1.011596 -1.355584,1.854595 -2.541719,2.577163 z"/></g></svg>