<svg xmlns="http://www.w3.org/2000/svg" width="192" height="192" fill="none" viewBox="0 0 192 192"><path stroke="#000" stroke-linejoin="round" stroke-width="12" d="M96 22C60.7296 22 31.731 37.7957 28.3329 58.0172C27.9667 60.1958 29.7909 62 32 62H160C162.209 62 164.033 60.1958 163.667 58.0172C160.269 37.7957 131.27 22 96 22Z"/><path stroke="#000" stroke-linejoin="round" stroke-width="12" d="M96 170C142.946 170 160.55 161.849 163.528 149.963C164.065 147.82 162.209 146 160 146H32C29.7909 146 27.9348 147.82 28.4717 149.963C31.4499 161.849 49.0536 170 96 170Z"/><path stroke="#000" stroke-linecap="round" stroke-width="12" d="M106 82V110M106 126V110M106 110L120 102.462M158 82L120 102.462M120 102.462L158 126"/><path stroke="#000" stroke-linejoin="round" stroke-width="12" d="M34 104H75C81.0751 104 86 108.925 86 115V115C86 121.075 81.0751 126 75 126H34V104Z"/><path stroke="#000" stroke-linejoin="round" stroke-width="12" d="M34 82H69C75.0751 82 80 86.9249 80 93V93C80 99.0751 75.0751 104 69 104H34V82Z"/></svg>