<svg xmlns="http://www.w3.org/2000/svg" xmlns:svg="http://www.w3.org/2000/svg" id="svg8" width="192" height="192" version="1.1" viewBox="0 0 50.8 50.8"><defs id="defs2"><marker id="Arrow1Lend" orient="auto" refX="0" refY="0" style="overflow:visible"><path id="path844" d="M 0,0 5,-5 -12.5,0 5,5 Z" transform="matrix(-0.8,0,0,-0.8,-10,0)" style="fill-rule:evenodd;stroke:#000;stroke-width:1pt"/></marker><marker id="Arrow1Lstart" orient="auto" refX="0" refY="0" style="overflow:visible"><path id="path841" d="M 0,0 5,-5 -12.5,0 5,5 Z" transform="matrix(0.8,0,0,0.8,10,0)" style="fill-rule:evenodd;stroke:#000;stroke-width:1pt"/></marker></defs><metadata id="metadata5"/><g id="layer2"><path style="fill:none;stroke:#000;stroke-width:3.175;stroke-linecap:round;stroke-linejoin:round;stroke-miterlimit:4;stroke-dasharray:none;stroke-opacity:1" id="path40179" d="m 14.376772,17.4505 c 7.600853,-0.302423 15.002732,-6.480571 22.165846,-6.480571 2.626474,0 5.173354,0.864075 7.362081,2.419414 0.676518,0.47524 1.074466,1.252912 1.074466,2.116987 l -0.03978,20.392195 c 0,0.648057 -0.238775,0.820874 -0.756107,0.475244 -2.347904,-1.512132 -4.8152,-2.333006 -7.600852,-2.333006 -7.720243,0 -14.684376,5.789309 -22.603592,5.789309 -2.626474,0 -5.1335601,-0.777667 -7.3620831,-2.333006 C 6.1391967,37.194643 5.8208355,36.589788 5.8208355,35.941731 V 15.679143 c 0,-1.080095 0.3183596,-1.166499 1.0346714,-0.648057 2.148934,1.598541 4.9345861,2.419414 7.5212651,2.419414 z"/></g></svg>