<svg xmlns="http://www.w3.org/2000/svg" xmlns:svg="http://www.w3.org/2000/svg" id="svg12" width="192" height="192" version="1.1"><g id="g10" fill="none" stroke="#000" stroke-linejoin="round" stroke-width="12"><path id="path23807" d="m 96.011934,63.62793 c -3.316166,0 -6.121927,2.715236 -6.121927,6.098051 0,3.382817 2.742034,6.121929 6.121927,6.121929 3.379882,0 6.098056,-2.802972 6.098056,-6.121929 0,-3.318963 -2.781886,-6.098052 -6.098056,-6.098051 z" style="color:#000;opacity:.98;fill:#000;stroke-width:3.78002;stroke-linecap:round;stroke-linejoin:round;stroke-miterlimit:4;stroke-dasharray:none"/><path id="path1012" d="M 83.434565,122.37207 H 108.56544 M 87.480015,90.961469 h 8.54041 v 31.410601" style="fill:none;stroke:#000;stroke-width:12;stroke-linecap:round;stroke-linejoin:round;stroke-miterlimit:4;stroke-dasharray:none;stroke-opacity:1"/><path id="path2" d="m 54,46 h 84"/><path id="path4" d="m 60,22 h 72 c 5.54,0 10,4.46 10,10 v 128 c 0,5.54 -4.46,10 -10,10 H 60 c -5.54,0 -10,-4.46 -10,-10 V 32 c 0,-5.54 4.46,-10 10,-10 z"/><path id="path6" d="m 54,146 h 84"/></g></svg>