<svg xmlns="http://www.w3.org/2000/svg" xmlns:svg="http://www.w3.org/2000/svg" id="svg8" width="192" height="192" version="1.1" viewBox="0 0 50.8 50.8"><defs id="defs2"><marker id="Arrow1Lend" orient="auto" refX="0" refY="0" style="overflow:visible"><path id="path844" d="M 0,0 5,-5 -12.5,0 5,5 Z" transform="matrix(-0.8,0,0,-0.8,-10,0)" style="fill-rule:evenodd;stroke:#000;stroke-width:1pt"/></marker><marker id="Arrow1Lstart" orient="auto" refX="0" refY="0" style="overflow:visible"><path id="path841" d="M 0,0 5,-5 -12.5,0 5,5 Z" transform="matrix(0.8,0,0,0.8,10,0)" style="fill-rule:evenodd;stroke:#000;stroke-width:1pt"/></marker></defs><metadata id="metadata5"/><g id="layer2"><path style="fill:none;stroke:#000;stroke-width:3.175;stroke-linecap:butt;stroke-linejoin:miter;stroke-miterlimit:4;stroke-dasharray:none;stroke-opacity:1" id="path36768" d="m 13.444515,17.789894 h 23.91097 c 2.198428,0 3.976928,1.733948 3.976928,3.877301 v 19.410588 c 0,2.143355 -1.7785,3.901385 -3.976928,3.901385 h -23.91097 c -2.173727,0 -3.9769278,-1.75803 -3.9769278,-3.901385 V 21.667195 c 0,-2.143353 1.8032008,-3.877301 3.9769278,-3.877301 z m 3.68051,0 V 13.88851 c 0,-4.4552843 3.705212,-8.0676773 8.274975,-8.0676773 4.56976,0 8.274974,3.612393 8.274974,8.0676773 v 3.901384 M 25.4,27.49519 c 2.198425,0 4.001629,1.733948 4.001629,3.8773 0,2.143353 -1.803204,3.901385 -4.001629,3.901385 -2.198426,0 -3.976928,-1.758032 -3.976928,-3.901385 0,-2.143352 1.778502,-3.8773 3.976928,-3.8773 z"/></g></svg>