<svg xmlns="http://www.w3.org/2000/svg" width="192" height="192" fill="none" viewBox="0 0 192 192"><path stroke="#000" stroke-linecap="round" stroke-linejoin="round" stroke-width="12" d="M96.0001 170C136.869 170 170 136.869 170 96C170 55.1309 136.869 22 96.0001 22C55.131 22 22.0001 55.1309 22.0001 96C22.0001 136.869 55.131 170 96.0001 170Z"/><path stroke="#000" stroke-linecap="round" stroke-linejoin="round" stroke-width="12" d="M80 166L64.8442 94.3542C61.3181 77.6857 74.0329 62 91.0702 62V62C103.371 62 114.093 70.3716 117.076 82.3049L118 86C124 114 90 100 98 126C106 152 114 164 114 164"/><path stroke="#000" stroke-linecap="round" stroke-linejoin="round" stroke-width="12" d="M90 62C88 54 80 50 72 50"/><path stroke="#000" stroke-linecap="round" stroke-linejoin="round" stroke-width="12" d="M118 100C124 100 132 98 138 94"/><path stroke="#000" stroke-linecap="round" stroke-linejoin="round" stroke-width="12" d="M104 112C110 116 120 118 131 116"/></svg>