<svg xmlns="http://www.w3.org/2000/svg" xmlns:svg="http://www.w3.org/2000/svg" id="svg8" width="192" height="192" version="1.1" viewBox="0 0 50.8 50.8"><defs id="defs2"><marker id="Arrow1Lend" orient="auto" refX="0" refY="0" style="overflow:visible"><path id="path844" d="M 0,0 5,-5 -12.5,0 5,5 Z" transform="matrix(-0.8,0,0,-0.8,-10,0)" style="fill-rule:evenodd;stroke:#000;stroke-width:1pt"/></marker><marker id="Arrow1Lstart" orient="auto" refX="0" refY="0" style="overflow:visible"><path id="path841" d="M 0,0 5,-5 -12.5,0 5,5 Z" transform="matrix(0.8,0,0,0.8,10,0)" style="fill-rule:evenodd;stroke:#000;stroke-width:1pt"/></marker></defs><metadata id="metadata5"/><g id="layer2"><path id="path38812" d="M 19.494175,7.1437507 C 13.649077,9.0331275 9.0329542,13.64929 7.1437503,19.494504 M 43.65625,19.493973 C 41.76759,13.651067 37.153666,9.0364156 31.307378,7.1458246 M 7.1458186,31.306534 C 9.036248,37.153228 13.651039,41.767502 19.494175,43.65625 m 11.813203,-0.0021 C 37.151702,41.764182 41.7643,37.151419 43.654183,31.307021 M 25.400001,5.820452 C 30.809522,23.419635 27.385576,19.99569 44.979549,25.4 27.385576,30.80952 30.809522,27.385576 25.400001,44.979548 19.99569,27.385576 23.419636,30.80952 5.8204515,25.4 23.419636,19.99569 19.99569,23.419635 25.400001,5.820452 Z" style="fill:none;stroke:#000;stroke-width:3.175;stroke-linecap:round;stroke-linejoin:round;stroke-miterlimit:4;stroke-dasharray:none;stroke-opacity:1"/></g></svg>