<svg xmlns="http://www.w3.org/2000/svg" width="192" height="192" fill="none" viewBox="0 0 192 192"><path stroke="#000" stroke-linejoin="round" stroke-width="12" d="M96 22L96 96C116.435 96 133 79.4345 133 59C133 38.5655 116.435 22 96 22Z"/><path stroke="#000" stroke-linejoin="round" stroke-width="12" d="M96 96L96 170C75.5655 170 59 153.435 59 133C59 112.565 75.5655 96 96 96Z"/><path stroke="#000" stroke-linejoin="round" stroke-width="12" d="M170 96L96 96C96 116.435 112.565 133 133 133C153.435 133 170 116.435 170 96Z"/><path stroke="#000" stroke-linejoin="round" stroke-width="12" d="M96 96L22 96C22 75.5655 38.5655 59 59 59C79.4345 59 96 75.5655 96 96Z"/></svg>