<svg xmlns="http://www.w3.org/2000/svg" width="192" height="192" fill="none" viewBox="0 0 192 192"><path stroke="#000" stroke-linecap="round" stroke-width="12" d="M45 103V137"/><path stroke="#000" stroke-linecap="round" stroke-width="12" d="M65.4194 103C65.4194 103 65.4194 126.247 65.4194 131.827C65.4194 137.406 69.4839 139.731 74 138.801M60 112.764H71.2903"/><path stroke="#000" stroke-linecap="round" stroke-width="12" d="M87.4375 112.995C100.854 108.815 109 110.673 109 123.675M109 123.675C109 123.675 86 120.889 86 132.499C86 141.593 108.042 137.607 109 133.427M109 123.675C109 123.675 109 127.987 109 133.427M109 139C109 139 109 135.604 109 133.427"/><path stroke="#000" stroke-linecap="round" stroke-width="12" d="M147 111.647C147 111.647 147 120.215 147 128.118M147 138C147 138 147 130.507 147 128.118M124.098 111.647C124.098 111.647 123.878 120.218 124.098 128.118C124.556 144.588 147 137.529 147 128.118M136.007 103.647L140.129 98"/><rect width="132" height="132" x="30" y="30" stroke="#000" stroke-width="12" rx="24"/></svg>