<svg xmlns="http://www.w3.org/2000/svg" width="192" height="192" fill="none" viewBox="0 0 192 192"><rect width="30" height="132" x="42" y="30" stroke="#000" stroke-width="12"/><path fill="#000" d="M152 162V168L157.603 159.854L152 162ZM118 162L112.345 164.006L118 168V162ZM96 100L90.9202 96.807C89.9434 98.361 89.7316 100.277 90.3454 102.006L96 100ZM110.397 70.1459L146.397 164.146L157.603 159.854L121.603 65.8541L110.397 70.1459ZM152 156H118V168H152V156ZM123.655 159.994L101.655 97.9935L90.3454 102.006L112.345 164.006L123.655 159.994ZM101.08 103.193L145.08 33.193L134.92 26.807L90.9202 96.807L101.08 103.193Z"/><path stroke="#000" stroke-linecap="round" stroke-width="12" d="M30 30H84"/><path stroke="#000" stroke-linecap="round" stroke-width="12" d="M114 30L152 30"/><path stroke="#000" stroke-linecap="round" stroke-width="12" d="M30 162H84"/><path stroke="#000" stroke-linecap="round" stroke-width="12" d="M104 162H162"/></svg>