<svg xmlns="http://www.w3.org/2000/svg" xmlns:svg="http://www.w3.org/2000/svg" id="svg8" width="192" height="192" version="1.1" viewBox="0 0 50.8 50.8"><defs id="defs2"><marker id="Arrow1Lend" orient="auto" refX="0" refY="0" style="overflow:visible"><path id="path844" d="M 0,0 5,-5 -12.5,0 5,5 Z" transform="matrix(-0.8,0,0,-0.8,-10,0)" style="fill-rule:evenodd;stroke:#000;stroke-width:1pt"/></marker><marker id="Arrow1Lstart" orient="auto" refX="0" refY="0" style="overflow:visible"><path id="path841" d="M 0,0 5,-5 -12.5,0 5,5 Z" transform="matrix(0.8,0,0,0.8,10,0)" style="fill-rule:evenodd;stroke:#000;stroke-width:1pt"/></marker></defs><metadata id="metadata5"/><g id="layer2"><path style="fill:none;stroke:#000;stroke-width:3.171px;stroke-linecap:round;stroke-linejoin:round;stroke-miterlimit:4;stroke-dasharray:none;stroke-opacity:1" id="path1295" d="m 35.965713,20.861842 -14.530891,14.53089 m -6.030369,-6.020369 14.540891,-14.53089 m -6.5304,-0.310019 3.11019,-3.11019 12.860789,12.850787 -3.120191,3.120191 M 38.54587,8.0210557 30.835399,15.731528 m 4.240258,4.230259 7.710474,-7.710473 M 5.8138658,22.281928 c 4.5202762,2.760169 8.7905382,6.090373 12.7007772,10.010615 3.91024,3.910238 7.240444,8.180498 10.010613,12.700775 m 9.12056,-37.8723179 6.03037,6.0303699 1.30008,-1.290079 -6.030371,-6.0303696 z"/></g></svg>