<svg xmlns="http://www.w3.org/2000/svg" xmlns:svg="http://www.w3.org/2000/svg" id="svg8" width="192" height="192" version="1.1" viewBox="0 0 50.8 50.8"><defs id="defs2"><marker id="Arrow1Lend" orient="auto" refX="0" refY="0" style="overflow:visible"><path id="path844" d="M 0,0 5,-5 -12.5,0 5,5 Z" transform="matrix(-0.8,0,0,-0.8,-10,0)" style="fill-rule:evenodd;stroke:#000;stroke-width:1pt"/></marker><marker id="Arrow1Lstart" orient="auto" refX="0" refY="0" style="overflow:visible"><path id="path841" d="M 0,0 5,-5 -12.5,0 5,5 Z" transform="matrix(0.8,0,0,0.8,10,0)" style="fill-rule:evenodd;stroke:#000;stroke-width:1pt"/></marker></defs><metadata id="metadata5"/><g id="layer2"><path style="fill:none;stroke:#000;stroke-width:3.17491;stroke-linecap:butt;stroke-linejoin:round;stroke-miterlimit:4;stroke-dasharray:none;stroke-opacity:1" id="path5327" d="m 28.048343,14.433659 c 1.040831,-0.554626 7.535554,-4.6242847 7.771546,-4.7605345 0.02003,-0.011565 0.50885,-0.3466412 1.156482,0.023123 0.902053,0.4852985 7.054529,4.2521285 7.308955,4.4370025 0.439462,0.254203 0.693885,0.71639 0.693885,1.224797 v 13.495885 c -0.04626,0.485297 -0.346942,0.901266 -0.786405,1.109248 -0.578239,0.323533 -15.890037,9.93704 -17.994832,11.092507 -0.485722,0.300422 -1.087091,0.300422 -1.595942,0.02312 C 22.543496,39.877122 7.1854367,30.263617 6.6071956,29.986303 6.1677332,29.778318 5.8670485,29.339242 5.8207898,28.853944 V 15.334949 c 0,-0.485297 0.2544262,-0.947485 0.647628,-1.201687 L 13.823635,9.6731478 c 0.370072,-0.2079854 0.786405,-0.2310838 1.156479,-0.023123 0.185024,0.092444 6.962011,4.5294402 8.025973,4.9454082 1.572812,0.716391 3.53883,0.670175 5.042256,-0.161762 z"/></g></svg>