<svg xmlns="http://www.w3.org/2000/svg" xmlns:svg="http://www.w3.org/2000/svg" id="svg8" width="192" height="192" version="1.1" viewBox="0 0 50.8 50.8"><defs id="defs2"><marker id="Arrow1Lend" orient="auto" refX="0" refY="0" style="overflow:visible"><path id="path844" d="M 0,0 5,-5 -12.5,0 5,5 Z" transform="matrix(-0.8,0,0,-0.8,-10,0)" style="fill-rule:evenodd;stroke:#000;stroke-width:1pt"/></marker><marker id="Arrow1Lstart" orient="auto" refX="0" refY="0" style="overflow:visible"><path id="path841" d="M 0,0 5,-5 -12.5,0 5,5 Z" transform="matrix(0.8,0,0,0.8,10,0)" style="fill-rule:evenodd;stroke:#000;stroke-width:1pt"/></marker></defs><metadata id="metadata5"/><g id="layer2"><path style="fill:#000;stroke:none;stroke-width:3.17499;stroke-linecap:butt;stroke-linejoin:miter;stroke-miterlimit:4;stroke-dasharray:none;stroke-opacity:1" id="path48836" d="m 20.147481,24.264544 c -0.618142,0.636872 -0.618142,1.629643 0,2.247784 0.618141,0.618142 1.629647,0.618142 2.247788,0 0.618141,-0.618141 0.618141,-1.610912 0,-2.247784 -0.618141,-0.618143 -1.629647,-0.618143 -2.247788,0 z"/><path style="fill:#000;stroke:none;stroke-width:3.17499;stroke-linecap:butt;stroke-linejoin:miter;stroke-miterlimit:4;stroke-dasharray:none;stroke-opacity:1" id="path48838" d="m 24.264542,30.652519 c 0.636873,0.61814 1.629647,0.61814 2.247788,0 0.618141,-0.618143 0.618141,-1.629644 0,-2.247788 -0.618141,-0.61814 -1.610915,-0.61814 -2.247788,0 -0.618142,0.618144 -0.618142,1.629645 0,2.247788 z"/><path style="fill:#000;stroke:none;stroke-width:3.17499;stroke-linecap:butt;stroke-linejoin:miter;stroke-miterlimit:4;stroke-dasharray:none;stroke-opacity:1" id="path48840" d="m 30.65252,26.535459 c 0.618142,-0.618141 0.618142,-1.629645 0,-2.247787 -0.618141,-0.618142 -1.629647,-0.618142 -2.247789,0 -0.61814,0.618142 -0.61814,1.629646 0,2.247787 0.618142,0.618142 1.629648,0.618142 2.247789,0 z"/><path style="fill:#000;stroke:none;stroke-width:3.17499;stroke-linecap:butt;stroke-linejoin:miter;stroke-miterlimit:4;stroke-dasharray:none;stroke-opacity:1" id="path48842" d="m 26.53546,20.147481 c -0.618141,-0.61814 -1.629647,-0.61814 -2.247788,0 -0.618142,0.618142 -0.618142,1.629647 0,2.247787 0.618141,0.618141 1.629647,0.618141 2.247788,0 0.618141,-0.61814 0.618141,-1.629645 0,-2.247787 z"/><path style="fill:none;stroke:#000;stroke-width:3.17499;stroke-linecap:butt;stroke-linejoin:miter;stroke-miterlimit:4;stroke-dasharray:none;stroke-opacity:1" id="path48844" d="M 14.10121,25.411592 6.4453277,17.732582 C 6.0289947,17.316249 5.8208307,16.76114 5.8208307,16.229161 v -0.02315 c 0,-0.555108 0.208171,-1.087087 0.624497,-1.52655 L 14.679449,6.4453307 c 0.439463,-0.416331 0.994571,-0.624497 1.526553,-0.624497 h 0.02313 c 0.531979,0 1.087089,0.208171 1.503423,0.624497 l 7.679011,7.6558853 7.655883,-7.6558853 c 0.416333,-0.416331 0.971444,-0.624497 1.526552,-0.624497 v 0 c 0.555109,0 1.110218,0.208171 1.526551,0.624497 l 8.23412,8.2341213 c 0.416333,0.43946 0.624498,0.994571 0.624498,1.52655 0,0.555109 -0.208172,1.110217 -0.624498,1.526548 L 25.411561,36.698785 m 11.287224,-11.287221 7.655882,7.655884 c 0.416333,0.416331 0.624498,0.97144 0.624498,1.526551 0,0.555106 -0.208172,1.110215 -0.624498,1.526548 l -8.23412,8.23412 c -0.416333,0.416331 -0.971442,0.6245 -1.526551,0.6245 v 0 c -0.555108,0 -1.110219,-0.208171 -1.526552,-0.6245 l -7.655883,-7.655882 -7.679011,7.655882 c -0.416334,0.416331 -0.971444,0.6245 -1.526551,0.6245 -0.531981,0 -1.08709,-0.208171 -1.526553,-0.6245 L 6.4453327,36.12057 c -0.416333,-0.416333 -0.624498,-0.971442 -0.624498,-1.526548 v 0 c 0,-0.555111 0.208172,-1.11022 0.624498,-1.52655 L 25.411568,14.101241"/></g></svg>