<svg xmlns="http://www.w3.org/2000/svg" xmlns:svg="http://www.w3.org/2000/svg" id="svg4" width="24" height="24" fill="none" version="1.1" viewBox="0 0 24 24"><path id="path2" fill="#000" d="M 12,2 C 6.4766667,2 2,6.4766667 2,12 2,17.523333 6.4766667,22 12,22 17.523333,22 22,17.523333 22,12 22,6.4766667 17.523333,2 12,2 Z m 5.191667,13.537556 c 0,0.170777 -0.138334,0.309111 -0.309223,0.309111 -7.77e-4,0 -7.77e-4,0 -0.0016,0 H 15.575 15.574111 c -0.170778,0 -0.309111,-0.138334 -0.309111,-0.309111 v -8.89e-4 -4.023334 c 0,-0.03333 -0.03833,-0.05 -0.06667,-0.02744 l -2.766666,2.766667 c -0.111667,0.11 -0.265,0.178222 -0.435,0.178222 -0.17,0 -0.323334,-0.06822 -0.435,-0.178222 L 8.795,11.485889 c -0.0225,-0.02256 -0.066667,-0.0059 -0.066667,0.02744 v 4.023334 8.89e-4 c 0,0.170777 -0.1383333,0.309111 -0.3091666,0.309111 H 8.4183333 7.1125 7.1116667 C 6.9408333,15.846667 6.8025,15.708333 6.8025,15.537556 v -8.89e-4 -7.0725003 c 0,-0.1716667 0.1383333,-0.31 0.31,-0.31 H 8.0091667 C 8.18,8.1558333 8.335,8.225 8.4466667,8.3375 l 3.4416663,3.441611 c 0.02756,0.02833 0.06589,0.04589 0.108334,0.04589 0.04256,0 0.08089,-0.01756 0.108333,-0.04589 L 15.546667,8.3375 C 15.663333,8.2208333 15.817556,8.1541667 15.984222,8.1541667 H 16.88 c 0.171667,0 0.31,0.1383333 0.31,0.31 l 0.0017,7.0725003 v 8.89e-4 z" style="stroke-width:1.11111"/></svg>