<svg xmlns="http://www.w3.org/2000/svg" width="192" height="192" fill="none" viewBox="0 0 192 192"><rect width="68" height="68" x="22" y="62" stroke="#000" stroke-linejoin="round" stroke-width="12" rx="4"/><circle cx="103" cy="46" r="18" stroke="#000" stroke-width="12"/><circle cx="156" cy="53" r="11" stroke="#000" stroke-width="12"/><path fill="#000" fill-rule="evenodd" d="M136.859 126.839C138.828 132.186 143.969 136 150 136C157.732 136 164 129.732 164 122V90H136.739L136.5 79L125.496 81.3414C126.947 79.3181 129.32 78 132 78H168C172.418 78 176 81.5817 176 86V122C176 136.359 164.359 148 150 148C143.015 148 136.673 145.245 132.001 140.763L136.859 126.839Z" clip-rule="evenodd"/><path fill="#000" fill-rule="evenodd" d="M62 130C62 152.091 79.9086 170 102 170C124.091 170 142 152.091 142 130V82C142 79.7909 140.209 78 138 78H90V90H130V130C130 145.464 117.464 158 102 158C86.536 158 74 145.464 74 130H62Z" clip-rule="evenodd"/><path stroke="#000" stroke-linecap="round" stroke-width="12" d="M56 110V82M56 82H42M56 82H70"/></svg>