<svg xmlns="http://www.w3.org/2000/svg" xmlns:svg="http://www.w3.org/2000/svg" id="svg8" width="192" height="192" version="1.1" viewBox="0 0 50.8 50.8"><defs id="defs2"><marker id="Arrow1Lend" orient="auto" refX="0" refY="0" style="overflow:visible"><path id="path844" d="M 0,0 5,-5 -12.5,0 5,5 Z" transform="matrix(-0.8,0,0,-0.8,-10,0)" style="fill-rule:evenodd;stroke:#000;stroke-width:1pt"/></marker><marker id="Arrow1Lstart" orient="auto" refX="0" refY="0" style="overflow:visible"><path id="path841" d="M 0,0 5,-5 -12.5,0 5,5 Z" transform="matrix(0.8,0,0,0.8,10,0)" style="fill-rule:evenodd;stroke:#000;stroke-width:1pt"/></marker></defs><metadata id="metadata5"/><g id="layer2"><path style="fill:none;stroke:#000;stroke-width:3.175;stroke-linecap:round;stroke-linejoin:round;stroke-miterlimit:4;stroke-dasharray:none;stroke-opacity:1" id="path49684" d="M 15.697129,15.697131 V 33.162964 L 25.276673,42.742506 35.59618,42.8625 M 32.196342,7.9375 H 42.862501 V 18.603658 Z M 7.9374999,32.196343 V 42.8625 H 18.603658 Z M 15.203819,7.9375 h 10.192848 l 9.706204,9.699539 V 35.10287 l 7.75963,7.75963 V 25.403333 M 34.129584,16.670417 25.396667,25.403333 7.9374999,7.9375 v 17.465833"/></g></svg>