<svg xmlns="http://www.w3.org/2000/svg" xmlns:svg="http://www.w3.org/2000/svg" id="svg8" width="192" height="192" version="1.1" viewBox="0 0 50.8 50.8"><defs id="defs2"><marker id="Arrow1Lend" orient="auto" refX="0" refY="0" style="overflow:visible"><path id="path844" d="M 0,0 5,-5 -12.5,0 5,5 Z" transform="matrix(-0.8,0,0,-0.8,-10,0)" style="fill-rule:evenodd;stroke:#000;stroke-width:1pt"/></marker><marker id="Arrow1Lstart" orient="auto" refX="0" refY="0" style="overflow:visible"><path id="path841" d="M 0,0 5,-5 -12.5,0 5,5 Z" transform="matrix(0.8,0,0,0.8,10,0)" style="fill-rule:evenodd;stroke:#000;stroke-width:1pt"/></marker></defs><metadata id="metadata5"/><g id="layer2"><path id="path6779" d="m 27.310037,44.27168 c -0.04584,-0.137396 -0.389608,-2.427181 0.572946,-3.526284 0.962558,-1.0991 9.16719,-11.174192 9.16719,-11.174192 4.125235,-4.213221 3.116846,-10.349869 -1.214652,-13.830357 -1.627175,-1.305181 -11.894426,-9.7316231 -11.963179,-9.8003175 -0.09167,-0.09159 -0.48128,-0.09159 -0.366689,0.5037548 0.02292,0.1144897 0.389605,2.4271816 -0.595867,3.5262827 -0.962555,1.099101 -9.14427,11.151295 -9.14427,11.151295 -4.1481544,4.236121 -3.139762,10.349869 1.191733,13.830357 1.627177,1.305184 11.894428,9.754522 11.96318,9.823217 0.09167,0.0916 0.504196,0.06869 0.389608,-0.503756 z M 20.549236,22.09112 h 9.6943 m -4.835693,0 v 9.685827" style="fill:none;stroke:#000;stroke-width:3.17489;stroke-linecap:round;stroke-linejoin:round;stroke-miterlimit:4;stroke-dasharray:none;stroke-opacity:1"/></g></svg>