<svg xmlns="http://www.w3.org/2000/svg" xmlns:svg="http://www.w3.org/2000/svg" id="svg8" width="192" height="192" version="1.1" viewBox="0 0 50.8 50.8"><defs id="defs2"><marker id="Arrow1Lend" orient="auto" refX="0" refY="0" style="overflow:visible"><path id="path844" d="M 0,0 5,-5 -12.5,0 5,5 Z" transform="matrix(-0.8,0,0,-0.8,-10,0)" style="fill-rule:evenodd;stroke:#000;stroke-width:1pt"/></marker><marker id="Arrow1Lstart" orient="auto" refX="0" refY="0" style="overflow:visible"><path id="path841" d="M 0,0 5,-5 -12.5,0 5,5 Z" transform="matrix(0.8,0,0,0.8,10,0)" style="fill-rule:evenodd;stroke:#000;stroke-width:1pt"/></marker></defs><metadata id="metadata5"/><g id="layer2"><path style="fill:none;stroke:#000;stroke-width:3.175;stroke-linecap:round;stroke-linejoin:round;stroke-miterlimit:4;stroke-dasharray:none;stroke-opacity:1" id="path15745" d="m 17.484538,20.384689 -0.84551,-0.798167 H 5.8206063 L 15.178873,30.174445 5.8206063,40.762369 H 16.639028 l 3.937996,-4.465054 3.960118,4.465054 H 35.532554 L 34.13877,39.347698 c -3.473401,-3.470361 -2.632705,-5.747097 -0.398225,-5.747097 h 6.260969 l 4.977802,-8.664858 H 30.997222 V 10.037493 L 24.0283,14.701486 c -1.482281,1.016797 -1.968997,3.492467 -1.349537,6.89652 0.707953,3.956656 2.16811,7.382811 4.358343,10.499507"/></g></svg>