<svg xmlns="http://www.w3.org/2000/svg" width="192" height="192" fill="none" viewBox="0 0 192 192"><g clip-path="url(#clip0_59_36)"><path stroke="#000" stroke-linecap="round" stroke-linejoin="round" stroke-width="12" d="M133 160.086C168.394 139.651 180.52 94.3936 160.086 58.9999C139.651 23.6063 94.3937 11.4795 59.0001 31.9141C23.6064 52.3486 11.4796 97.6063 31.9142 133C52.3487 168.394 97.6064 180.52 133 160.086Z"/><path stroke="#000" stroke-linejoin="round" stroke-width="12" d="M65.0383 162.373C53.0383 141.589 44.2411 93.5515 52.555 88.7515C60.8688 83.9515 76.8994 96.2506 83.8755 103C93.2678 95.2681 96.7319 93.2681 108.124 89.0002C105.767 79.5839 103.131 59.5515 111.445 54.7515C119.759 49.9515 156.961 81.5886 168.961 102.373"/><ellipse cx="89.349" cy="134.481" fill="#000" rx="8" ry="10" transform="rotate(-30 89.3494 134.481)"/><ellipse cx="132.651" cy="109.481" fill="#000" rx="8" ry="10" transform="rotate(-30 132.651 109.481)"/></g><defs><clipPath id="clip0_59_36"><rect width="192" height="192" fill="#fff"/></clipPath></defs></svg>