<svg xmlns="http://www.w3.org/2000/svg" xmlns:svg="http://www.w3.org/2000/svg" id="svg8" width="192" height="192" version="1.1" viewBox="0 0 50.8 50.8"><defs id="defs2"><marker id="Arrow1Lend" orient="auto" refX="0" refY="0" style="overflow:visible"><path id="path844" d="M 0,0 5,-5 -12.5,0 5,5 Z" transform="matrix(-0.8,0,0,-0.8,-10,0)" style="fill-rule:evenodd;stroke:#000;stroke-width:1pt"/></marker><marker id="Arrow1Lstart" orient="auto" refX="0" refY="0" style="overflow:visible"><path id="path841" d="M 0,0 5,-5 -12.5,0 5,5 Z" transform="matrix(0.8,0,0,0.8,10,0)" style="fill-rule:evenodd;stroke:#000;stroke-width:1pt"/></marker></defs><metadata id="metadata5"/><g id="layer2"><path id="path40791-8" d="m -30.774325,9.7171202 a 3.8793197,3.8793197 0 0 1 -3.87932,3.8793198 3.8793197,3.8793197 0 0 1 -3.879319,-3.8793198 3.8793197,3.8793197 0 0 1 3.879319,-3.8793197 3.8793197,3.8793197 0 0 1 3.87932,3.8793197 z m 2.642339,11.1230328 c -6.986561,-7.019451 -18.925282,4.029684 -10.172005,11.413104 l 13.089763,12.713004 4.79155,-4.653635 m -3.93496,-15.858755 c 2.141475,-7.487416 13.33068,-7.019451 14.8029426,0.597952 0.428294,2.105835 -0.187373,4.601639 -1.6328736,6.135519 -1.954095,1.871853 -3.881423,3.769702 -5.835519,5.641558 l -6.049666,-5.901537 c -2.462693,-3.171753 -1.284884,-5.849543 -1.284884,-6.473492 z m 4.331962,-14.7327521 a 3.8793197,3.8793197 0 0 0 3.879319,3.8793201 3.8793197,3.8793197 0 0 0 3.87932,-3.8793201 3.8793197,3.8793197 0 0 0 -3.87932,-3.8793196 3.8793197,3.8793197 0 0 0 -3.879319,3.8793196 z" transform="scale(-1,1)" style="fill:none;stroke:#000;stroke-width:3.175;stroke-linecap:round;stroke-linejoin:round"/></g></svg>