<svg xmlns="http://www.w3.org/2000/svg" width="192" height="192" fill="none" viewBox="0 0 192 192"><rect width="22" height="64" x="106" y="22" stroke="#000" stroke-width="12" rx="11"/><rect width="22" height="64" x="64" y="106" stroke="#000" stroke-width="12" rx="11"/><rect width="22" height="64" x="170" y="106" stroke="#000" stroke-width="12" rx="11" transform="rotate(90 170 106)"/><rect width="22" height="64" x="86" y="64" stroke="#000" stroke-width="12" rx="11" transform="rotate(90 86 64)"/><path stroke="#000" stroke-linejoin="round" stroke-width="12" d="M75 44C68.9249 44 64 39.0751 64 33C64 26.9249 68.9249 22 75 22C81.0751 22 86 26.9249 86 33L86 44L75 44Z"/><path stroke="#000" stroke-linejoin="round" stroke-width="12" d="M117 148C123.075 148 128 152.925 128 159C128 165.075 123.075 170 117 170C110.925 170 106 165.075 106 159L106 148L117 148Z"/><path stroke="#000" stroke-linejoin="round" stroke-width="12" d="M148 75C148 68.9249 152.925 64 159 64C165.075 64 170 68.9249 170 75C170 81.0751 165.075 86 159 86L148 86L148 75Z"/><path stroke="#000" stroke-linejoin="round" stroke-width="12" d="M44 117C44 123.075 39.0751 128 33 128C26.9249 128 22 123.075 22 117C22 110.925 26.9249 106 33 106L44 106L44 117Z"/></svg>