<svg xmlns="http://www.w3.org/2000/svg" xmlns:svg="http://www.w3.org/2000/svg" id="svg8" width="192" height="192" version="1.1" viewBox="0 0 50.8 50.8"><defs id="defs2"><marker id="Arrow1Lend" orient="auto" refX="0" refY="0" style="overflow:visible"><path id="path844" d="M 0,0 5,-5 -12.5,0 5,5 Z" transform="matrix(-0.8,0,0,-0.8,-10,0)" style="fill-rule:evenodd;stroke:#000;stroke-width:1pt"/></marker><marker id="Arrow1Lstart" orient="auto" refX="0" refY="0" style="overflow:visible"><path id="path841" d="M 0,0 5,-5 -12.5,0 5,5 Z" transform="matrix(0.8,0,0,0.8,10,0)" style="fill-rule:evenodd;stroke:#000;stroke-width:1pt"/></marker></defs><metadata id="metadata5"/><g id="layer2"><path id="path46847" d="m 44.223779,19.234947 c 0.75426,-3.746989 1.064455,-7.491832 0.359579,-11.2151926 -2.662731,2.6783566 -5.325464,4.7733056 -8.014304,6.1257416 m -3.437482,-2.71681 C 29.782363,9.9818076 25.700159,9.8169039 21.785155,10.437773 m -2.315023,10.814642 c -1.644628,-4.37553 -2.088418,-8.857131 -1.174733,-13.4713265 2.819364,2.5457625 5.978097,4.7467875 9.528406,6.5500345 M 13.028266,13.521578 C 10.37603,15.419213 7.541182,18.53363 5.8206771,21.709417 8.4834089,21.391196 11.206322,21.417713 13.5819,22.213267 8.8779963,25.702727 6.4612224,30.928049 6.0362681,36.731814 10.082045,33.8151 13.064058,32.595782 16.735832,32.001948 c -2.767153,1.538066 -3.845844,6.482351 -3.871949,11.016989 4.05734,-3.017155 7.787474,-3.67022 11.104703,-3.428359 2.155958,1.319547 4.904999,2.041885 7.357531,2.177519 3.065943,0.169558 5.586523,-0.49267 7.457613,-1.419521 m -6.072859,-4.22538 c -1.288007,0.23793 -3.006178,0.89641 -4.778758,0.262234 -4.558076,-1.630744 -5.729077,-8.198218 -3.746978,-12.228315 0.352976,-0.690084 1.086081,-1.242154 2.199314,-0.993722 2.443681,0.469256 6.127564,3.064463 7.707416,6.769792 0.430539,1.009769 1.425916,2.076672 2.247058,2.076672 0.977474,0 1.895154,-0.834049 2.263939,-2.028423 1.406792,-4.556144 3.152409,-6.064484 4.480087,-6.514403 0.708797,-0.240195 1.167543,0.02761 1.357602,0.800499 0.206101,0.778244 0.31642,1.870925 0.303909,3.087761 -0.03364,3.271778 -1.681285,8.88994 -4.919757,9.006364 -0.87201,-0.01739 -1.600426,-0.452204 -3.195572,-0.554717 -0.937951,-0.06028 -2.175571,-0.0057 -3.91826,0.316258 z" style="fill:none;stroke:#000;stroke-width:3.17501;stroke-linecap:round;stroke-linejoin:round;stroke-miterlimit:4;stroke-dasharray:none;stroke-opacity:1"/><path style="color:#000;fill:#000;stroke-linecap:round;stroke-linejoin:round;-inkscape-stroke:none" id="path1767" d="m 29.196221,29.398437 a 1.587505,1.587505 0 0 0 -1.587891,1.587891 1.587505,1.587505 0 0 0 1.587891,1.585938 1.587505,1.587505 0 0 0 1.585938,-1.585938 1.587505,1.587505 0 0 0 -1.585938,-1.587891 z"/></g></svg>