<svg xmlns="http://www.w3.org/2000/svg" width="192" height="192" fill="none" viewBox="0 0 192 192"><path stroke="#000" stroke-linecap="round" stroke-linejoin="round" stroke-width="12" d="M108 80L114 95M114 95L107 99M114 95L121 100"/><path stroke="#000" stroke-linecap="round" stroke-linejoin="round" stroke-width="12" d="M64 104L79.5 108M79.5 108L88 104M79.5 108L82 120"/><path stroke="#000" stroke-linecap="round" stroke-linejoin="round" stroke-width="12" d="M140 140L104 160V120L140 140Z"/><path stroke="#000" stroke-linecap="round" stroke-linejoin="round" stroke-width="12" d="M48 136C48 130.5 52 126 59 126C64 126 68 130 68 136C68 142 66 155 48 155C36 155 22 148 22 128C22 108 40 92 40 92"/><path stroke="#000" stroke-linecap="round" stroke-linejoin="round" stroke-width="12" d="M56 76C68 64 78.4 60 104 60C101 56 92 46 80 46"/><path stroke="#000" stroke-linecap="round" stroke-linejoin="round" stroke-width="12" d="M170 73C170 73 168 83.8569 156 88C144 92.1431 136 84 136 84"/><path stroke="#000" stroke-linecap="round" stroke-linejoin="round" stroke-width="12" d="M122 48L130 32L158 58"/></svg>