<svg xmlns="http://www.w3.org/2000/svg" width="192" height="192" fill="none" viewBox="0 0 192 192"><path stroke="#000" stroke-linejoin="round" stroke-width="12" d="M46 162H146C154.837 162 162 154.837 162 146V60L132 30H46C37.1634 30 30 37.1634 30 46V146C30 154.837 37.1634 162 46 162Z"/><path stroke="#000" stroke-linecap="round" stroke-linejoin="round" stroke-width="12" d="M54 160V110C54 105.582 57.5817 102 62 102H130C134.418 102 138 105.582 138 110V160"/><path stroke="#000" stroke-linecap="round" stroke-linejoin="round" stroke-width="12" d="M132 30V74C132 78.4183 128.418 82 124 82H62C57.5817 82 54 78.4183 54 74V30"/><path stroke="#000" stroke-linecap="round" stroke-linejoin="round" stroke-width="12" d="M74 122H118"/><path stroke="#000" stroke-linecap="round" stroke-linejoin="round" stroke-width="12" d="M74 142H118"/><rect width="20" height="24" x="98" y="44" fill="#000" rx="6"/></svg>